<?xml version="1.0" encoding="utf-8"?>
<!-- Generator: Adobe Illustrator 16.0.0, SVG Export Plug-In . SVG Version: 6.00 Build 0)  -->
<!DOCTYPE svg PUBLIC "-//W3C//DTD SVG 1.1//EN" "http://www.w3.org/Graphics/SVG/1.1/DTD/svg11.dtd">
<svg version="1.1" id="Layer_1" xmlns="http://www.w3.org/2000/svg" xmlns:xlink="http://www.w3.org/1999/xlink" x="0px" y="0px"
	 width="588.607px" height="579.058px" viewBox="680.356 752.355 588.607 579.058"
	 enable-background="new 680.356 752.355 588.607 579.058" xml:space="preserve">
<filter  id="f">
	<feGaussianBlur  stdDeviation=".74286"></feGaussianBlur>
</filter>
<g opacity="0.7225" filter="url(#f)" enable-background="new    ">
	<path fill="#888A85" d="M772.892,761.26h427.315c39.334,0,71.221,31.885,71.221,71.219l0,0v427.316
		c0,39.334-31.887,71.221-71.219,71.221h-0.002H772.892c-39.333,0-71.22-31.887-71.22-71.221l0,0V832.479
		C701.672,793.145,733.559,761.26,772.892,761.26L772.892,761.26"/>
	<path fill="none" stroke="#888A85" stroke-width="0.4429" d="M772.892,761.26h427.315c39.334,0,71.221,31.885,71.221,71.219l0,0
		v427.316c0,39.334-31.887,71.221-71.219,71.221h-0.002H772.892c-39.333,0-71.22-31.887-71.22-71.221l0,0V832.479
		C701.672,793.145,733.559,761.26,772.892,761.26L772.892,761.26"/>
</g>
<linearGradient id="SVGID_1_" gradientUnits="userSpaceOnUse" x1="195.8403" y1="-210.0752" x2="195.8403" y2="-286.1347" gradientTransform="matrix(7.6698 0 0 -7.6698 -536.6005 -868.23)">
	<stop  offset="0" style="stop-color:#F9F8F8"/>
	<stop  offset="0.0701" style="stop-color:#ECECEC"/>
	<stop  offset="0.9333" style="stop-color:#E8E7E7"/>
	<stop  offset="1" style="stop-color:#B4B3B4"/>
</linearGradient>
<linearGradient id="SVGID_2_" gradientUnits="userSpaceOnUse" x1="196.6484" y1="-270.9243" x2="197.7054" y2="-300.7241" gradientTransform="matrix(7.6698 0 0 -7.6698 -536.6005 -868.23)">
	<stop  offset="0" style="stop-color:#DAD9D9"/>
	<stop  offset="0.2797" style="stop-color:#DAD9D9"/>
	<stop  offset="1" style="stop-color:#000000"/>
</linearGradient>
<path fill="url(#SVGID_1_)" stroke="url(#SVGID_2_)" stroke-width="0.4429" d="M751.799,749.754h427.316
	c39.334,0,71.221,31.887,71.221,71.221l0,0v427.316c0,39.334-31.887,71.219-71.221,71.219l0,0H751.799
	c-39.333,0-71.219-31.885-71.219-71.219l0,0V820.975C680.58,781.641,712.466,749.754,751.799,749.754L751.799,749.754"/>
<linearGradient id="SVGID_3_" gradientUnits="userSpaceOnUse" x1="1134.2051" y1="796.7744" x2="1134.2051" y2="904.9351">
	<stop  offset="0" style="stop-color:#27356F"/>
	<stop  offset="1" style="stop-color:#415A9D"/>
</linearGradient>
<path fill="url(#SVGID_3_)" d="M1188.887,850.623c0,30.2-24.482,54.682-54.682,54.682c-30.201,0-54.682-24.481-54.682-54.682
	s24.48-54.683,54.682-54.683C1164.404,795.94,1188.887,820.423,1188.887,850.623z"/>
<linearGradient id="SVGID_4_" gradientUnits="userSpaceOnUse" x1="173.606" y1="675.4941" x2="173.606" y2="659.2305" gradientTransform="matrix(6.7246 0 0 -6.7246 -370.6943 5691.1724)">
	<stop  offset="0" style="stop-color:#27356F"/>
	<stop  offset="1" style="stop-color:#415A9D"/>
</linearGradient>
<path fill="url(#SVGID_4_)" d="M851.415,1203.434c0,30.201-24.481,54.684-54.683,54.684c-30.199,0-54.682-24.482-54.682-54.684
	c0-30.199,24.482-54.682,54.682-54.682C826.934,1148.752,851.415,1173.234,851.415,1203.434z"/>
<path fill="#FFFFFF" d="M742.281,1209.406c-0.187,1.84-0.183,3.584-0.183,5.473c0,30.199,24.334,54.715,54.534,54.715
	c30.199,0,54.717-24.516,54.717-54.715c0-1.889,0.004-3.633-0.182-5.473c-3.047,27.316-26.406,48.516-54.535,48.516
	S745.326,1236.723,742.281,1209.406L742.281,1209.406z"/>
<path fill="#FFFFFF" d="M1079.783,856.595c-0.186,1.839-0.182,3.584-0.182,5.472c0,30.199,24.334,54.717,54.533,54.717
	c30.201,0,54.717-24.517,54.717-54.717c0-1.888,0.004-3.633-0.182-5.472c-3.045,27.316-26.404,48.516-54.533,48.516
	s-51.307-21.198-54.352-48.516H1079.783z"/>
</svg>
