<?xml version="1.0" encoding="utf-8"?>
<!-- Generator: Adobe Illustrator 16.0.0, SVG Export Plug-In . SVG Version: 6.00 Build 0)  -->
<!DOCTYPE svg PUBLIC "-//W3C//DTD SVG 1.1//EN" "http://www.w3.org/Graphics/SVG/1.1/DTD/svg11.dtd">
<svg version="1.1" id="Layer_1" xmlns="http://www.w3.org/2000/svg" xmlns:xlink="http://www.w3.org/1999/xlink" x="0px" y="0px"
	 width="590.847px" height="570.199px" viewBox="5.782 99.361 590.847 570.199"
	 enable-background="new 5.782 99.361 590.847 570.199" xml:space="preserve">
<filter  id="f">
	<feGaussianBlur  stdDeviation=".74286"></feGaussianBlur>
</filter>
<g opacity="0.7225" filter="url(#f)" enable-background="new    ">
	<path fill="#888A85" d="M98.093,111.088h427.316c39.334,0,71.22,31.886,71.22,71.22l0,0v427.315
		c0,39.334-31.886,71.221-71.219,71.221h-0.001H98.093c-39.333,0-71.22-31.887-71.22-71.221l0,0V182.308
		C26.874,142.974,58.76,111.088,98.093,111.088L98.093,111.088"/>
	<path fill="none" stroke="#888A85" stroke-width="0.4429" d="M98.093,111.088h427.316c39.334,0,71.22,31.886,71.22,71.22l0,0
		v427.315c0,39.334-31.886,71.221-71.219,71.221h-0.001H98.093c-39.333,0-71.22-31.887-71.22-71.221l0,0V182.308
		C26.874,142.974,58.76,111.088,98.093,111.088L98.093,111.088"/>
</g>
<linearGradient id="SVGID_1_" gradientUnits="userSpaceOnUse" x1="107.8594" y1="-125.3052" x2="107.8594" y2="-201.3647" gradientTransform="matrix(7.6698 0 0 -7.6698 -536.6005 -868.23)">
	<stop  offset="0" style="stop-color:#F9F8F8"/>
	<stop  offset="0.0701" style="stop-color:#ECECEC"/>
	<stop  offset="0.9333" style="stop-color:#E8E7E7"/>
	<stop  offset="1" style="stop-color:#B4B3B4"/>
</linearGradient>
<linearGradient id="SVGID_2_" gradientUnits="userSpaceOnUse" x1="108.6685" y1="-186.1543" x2="109.7254" y2="-215.9541" gradientTransform="matrix(7.6698 0 0 -7.6698 -536.6005 -868.23)">
	<stop  offset="0" style="stop-color:#DAD9D9"/>
	<stop  offset="0.2797" style="stop-color:#DAD9D9"/>
	<stop  offset="1" style="stop-color:#000000"/>
</linearGradient>
<path fill="url(#SVGID_1_)" stroke="url(#SVGID_2_)" stroke-width="0.4429" d="M77.001,99.583h427.316
	c39.334,0,71.22,31.886,71.22,71.22l0,0v427.316c0,39.334-31.886,71.22-71.22,71.22l0,0H77.001
	c-39.333,0-71.219-31.886-71.219-71.22l0,0V170.803C5.782,131.469,37.667,99.583,77.001,99.583L77.001,99.583"/>
<linearGradient id="SVGID_3_" gradientUnits="userSpaceOnUse" x1="73.2573" y1="772.1787" x2="73.2573" y2="755.915" gradientTransform="matrix(6.7246 0 0 -6.7246 -370.6943 5522.4302)">
	<stop  offset="0" style="stop-color:#27356F"/>
	<stop  offset="1" style="stop-color:#415A9D"/>
</linearGradient>
<path fill="url(#SVGID_3_)" d="M176.617,384.527c0,30.2-24.482,54.683-54.682,54.683s-54.683-24.482-54.683-54.683
	s24.482-54.683,54.683-54.683S176.617,354.327,176.617,384.527z"/>
<linearGradient id="SVGID_4_" gradientUnits="userSpaceOnUse" x1="73.2573" y1="772.1787" x2="73.2573" y2="755.915" gradientTransform="matrix(6.7246 0 0 -6.7246 -33.2217 5522.4302)">
	<stop  offset="0" style="stop-color:#27356F"/>
	<stop  offset="1" style="stop-color:#415A9D"/>
</linearGradient>
<path fill="url(#SVGID_4_)" d="M514.089,384.527c0,30.2-24.482,54.683-54.683,54.683s-54.682-24.482-54.682-54.683
	s24.481-54.683,54.682-54.683S514.089,354.327,514.089,384.527z"/>
<linearGradient id="SVGID_5_" gradientUnits="userSpaceOnUse" x1="73.2573" y1="772.1787" x2="73.2573" y2="755.915" gradientTransform="matrix(6.7246 0 0 -6.7246 -370.6943 5338.3599)">
	<stop  offset="0" style="stop-color:#27356F"/>
	<stop  offset="1" style="stop-color:#415A9D"/>
</linearGradient>
<path fill="url(#SVGID_5_)" d="M176.617,200.452c0,30.2-24.482,54.682-54.682,54.682s-54.683-24.482-54.683-54.682
	s24.482-54.683,54.683-54.683S176.617,170.251,176.617,200.452z"/>
<linearGradient id="SVGID_6_" gradientUnits="userSpaceOnUse" x1="459.4062" y1="146.603" x2="459.4062" y2="254.7641">
	<stop  offset="0" style="stop-color:#27356F"/>
	<stop  offset="1" style="stop-color:#415A9D"/>
</linearGradient>
<path fill="url(#SVGID_6_)" d="M514.089,200.452c0,30.2-24.482,54.682-54.683,54.682s-54.682-24.482-54.682-54.682
	s24.481-54.683,54.682-54.683S514.089,170.251,514.089,200.452z"/>
<linearGradient id="SVGID_7_" gradientUnits="userSpaceOnUse" x1="73.2573" y1="772.1797" x2="73.2573" y2="755.916" gradientTransform="matrix(6.7246 0 0 -6.7246 -370.6943 5691.1724)">
	<stop  offset="0" style="stop-color:#27356F"/>
	<stop  offset="1" style="stop-color:#415A9D"/>
</linearGradient>
<path fill="url(#SVGID_7_)" d="M176.617,553.263c0,30.2-24.482,54.683-54.682,54.683s-54.683-24.482-54.683-54.683
	s24.482-54.682,54.683-54.682S176.617,523.062,176.617,553.263z"/>
<linearGradient id="SVGID_8_" gradientUnits="userSpaceOnUse" x1="73.2573" y1="772.1797" x2="73.2573" y2="755.916" gradientTransform="matrix(6.7246 0 0 -6.7246 -33.2217 5691.1724)">
	<stop  offset="0" style="stop-color:#27356F"/>
	<stop  offset="1" style="stop-color:#415A9D"/>
</linearGradient>
<path fill="url(#SVGID_8_)" d="M514.089,553.263c0,30.2-24.482,54.683-54.683,54.683s-54.682-24.482-54.682-54.683
	s24.481-54.682,54.682-54.682S514.089,523.062,514.089,553.263z"/>
<path fill="#FFFFFF" d="M67.483,390.499c-0.187,1.838-0.183,3.584-0.183,5.472c0,30.199,24.334,54.717,54.534,54.717
	c30.2,0,54.716-24.517,54.716-54.717c0-1.888,0.004-3.633-0.182-5.472c-3.046,27.316-26.405,48.516-54.534,48.516
	S70.528,417.816,67.483,390.499L67.483,390.499z"/>
<path fill="#FFFFFF" d="M404.985,390.499c-0.187,1.838-0.183,3.584-0.183,5.472c0,30.199,24.334,54.717,54.534,54.717
	s54.717-24.517,54.717-54.717c0-1.888,0.004-3.633-0.182-5.472c-3.046,27.316-26.405,48.516-54.534,48.516
	S408.031,417.816,404.985,390.499L404.985,390.499z"/>
<path fill="#FFFFFF" d="M404.985,559.235c-0.187,1.839-0.183,3.584-0.183,5.472c0,30.199,24.334,54.716,54.534,54.716
	s54.717-24.516,54.717-54.716c0-1.888,0.004-3.633-0.182-5.472c-3.046,27.315-26.405,48.515-54.534,48.515
	S408.031,586.552,404.985,559.235L404.985,559.235z"/>
<path fill="#FFFFFF" d="M67.483,559.235c-0.187,1.839-0.183,3.584-0.183,5.472c0,30.199,24.334,54.716,54.534,54.716
	c30.2,0,54.716-24.516,54.716-54.716c0-1.888,0.004-3.633-0.182-5.472c-3.046,27.315-26.405,48.515-54.534,48.515
	S70.528,586.552,67.483,559.235L67.483,559.235z"/>
<path fill="#FFFFFF" d="M67.483,206.423c-0.187,1.838-0.183,3.584-0.183,5.472c0,30.2,24.334,54.716,54.534,54.716
	c30.2,0,54.716-24.516,54.716-54.716c0-1.888,0.004-3.633-0.182-5.472c-3.046,27.316-26.405,48.516-54.534,48.516
	S70.528,233.74,67.483,206.423L67.483,206.423z"/>
<path fill="#FFFFFF" d="M404.985,206.423c-0.187,1.838-0.183,3.584-0.183,5.472c0,30.2,24.334,54.716,54.534,54.716
	s54.717-24.516,54.717-54.716c0-1.888,0.004-3.633-0.182-5.472c-3.046,27.316-26.405,48.516-54.534,48.516
	S408.031,233.74,404.985,206.423L404.985,206.423z"/>
</svg>
